<svg width="34" height="38" viewBox="0 0 34 38" fill="none" xmlns="http://www.w3.org/2000/svg">
<path fill-rule="evenodd" clip-rule="evenodd" d="M14.9376 0.416626C12.6221 0.416823 10.3402 0.970748 8.28234 2.03219C6.22447 3.09362 4.45027 4.6318 3.10776 6.51837C1.76526 8.40495 0.893375 10.5852 0.56486 12.8773C0.236345 15.1693 0.460722 17.5067 1.21927 19.6945C1.97782 21.8822 3.24855 23.8568 4.92543 25.4535C6.60231 27.0502 8.63673 28.2228 10.8589 28.8734C13.0812 29.5239 15.4267 29.6336 17.7 29.1934C19.9732 28.7531 22.1082 27.7755 23.9268 26.3423L30.1657 32.5811C30.4878 32.8923 30.9194 33.0645 31.3673 33.0606C31.8152 33.0567 32.2437 32.8771 32.5604 32.5603C32.8772 32.2436 33.0568 31.8151 33.0607 31.3672C33.0646 30.9193 32.8924 30.4877 32.5812 30.1655L26.3424 23.9267C28.0302 21.7855 29.0811 19.2124 29.3749 16.5018C29.6686 13.7913 29.1933 11.0527 28.0033 8.5997C26.8133 6.14666 24.9567 4.07819 22.6461 2.63102C20.3354 1.18385 17.664 0.416443 14.9376 0.416626ZM3.8334 14.9375C3.8334 11.9925 5.0033 9.16806 7.08574 7.08563C9.16817 5.00319 11.9926 3.83329 14.9376 3.83329C17.8826 3.83329 20.707 5.00319 22.7894 7.08563C24.8718 9.16806 26.0417 11.9925 26.0417 14.9375C26.0417 17.8825 24.8718 20.7069 22.7894 22.7893C20.707 24.8717 17.8826 26.0416 14.9376 26.0416C11.9926 26.0416 9.16817 24.8717 7.08574 22.7893C5.0033 20.7069 3.8334 17.8825 3.8334 14.9375Z" fill="#C7C7C7"/>
</svg>
